<svg xmlns="http://www.w3.org/2000/svg" width="178" height="56" fill="none"><path fill="#003087" d="M131.753 55.43h3.204a.267.267 0 0 0 .267-.266.25.25 0 0 0-.021-.1.258.258 0 0 0-.246-.157h-2.912V53.11h2.577a.26.26 0 0 0 .188-.072.25.25 0 0 0 .058-.085.25.25 0 0 0 .021-.1.274.274 0 0 0-.267-.267h-2.577v-1.72h2.878a.254.254 0 0 0 .188-.072.263.263 0 0 0 .078-.186.266.266 0 0 0-.266-.266h-3.17a.292.292 0 0 0-.283.292v4.53a.292.292 0 0 0 .283.293v-.026Zm-5.712-2.483v-2.098h1.581c.859 0 1.305.378 1.305 1.006 0 .662-.549 1.049-1.314 1.049l-1.572.043Zm-.575 2.252a.292.292 0 0 0 .283.292.293.293 0 0 0 .292-.292v-1.72h1.469l1.435 1.866a.348.348 0 0 0 .274.155.29.29 0 0 0 .284-.284.308.308 0 0 0-.095-.215l-1.262-1.633a1.483 1.483 0 0 0 1.357-1.479 1.403 1.403 0 0 0-.387-1.006 2.003 2.003 0 0 0-1.451-.515h-1.916a.303.303 0 0 0-.199.09.302.302 0 0 0-.084.202v4.539Zm-4.544-.19a2.027 2.027 0 0 1-2.01-2.114 2.007 2.007 0 0 1 1.206-1.977 2.005 2.005 0 0 1 2.266.47 2.019 2.019 0 0 1 .539 1.507 2.004 2.004 0 0 1-2.001 2.097v.018Zm0 .517a2.574 2.574 0 0 0 2.401-1.64c.125-.321.185-.664.176-1.008a2.61 2.61 0 0 0-2.607-2.61 2.606 2.606 0 0 0-2.607 2.61 2.568 2.568 0 0 0 .736 1.857 2.575 2.575 0 0 0 1.841.773l.06.017Zm-7.379-2.425V50.85h1.289c.859 0 1.374.378 1.374 1.109 0 .67-.558 1.126-1.4 1.126l-1.263.017Zm-.575 2.072a.283.283 0 0 0 .064.238.293.293 0 0 0 .347.077.295.295 0 0 0 .164-.315v-1.547h1.237c1.091 0 2.01-.568 2.01-1.668 0-1.006-.764-1.625-1.915-1.625h-1.624a.292.292 0 0 0-.283.293v4.547Zm-5.498-1.625 1.168-2.579 1.177 2.58h-2.345Zm-1.297 1.65a.27.27 0 0 0 .017.102.268.268 0 0 0 .055.087.259.259 0 0 0 .186.078.284.284 0 0 0 .275-.197l.532-1.187h2.8l.533 1.17a.308.308 0 0 0 .283.215.284.284 0 0 0 .284-.276.301.301 0 0 0 0-.146l-2.07-4.53a.358.358 0 0 0-.352-.25.37.37 0 0 0-.361.25l-2.07 4.53a.272.272 0 0 0 0 .155h-.112Zm-3.616.319a3.084 3.084 0 0 0 1.847-.619.406.406 0 0 0 .197-.353V52.99a.292.292 0 0 0-.283-.293h-1.641a.257.257 0 0 0-.249.267.248.248 0 0 0 .249.25h1.374v1.271c-.422.33-.941.512-1.477.516a1.97 1.97 0 0 1-1.483-.616c-.19-.201-.336-.44-.429-.701a1.995 1.995 0 0 1-.107-.815 1.992 1.992 0 0 1 1.821-2.106 2.19 2.19 0 0 1 1.418.464.256.256 0 0 0 .18.078.292.292 0 0 0 .254-.421.305.305 0 0 0-.082-.104 2.731 2.731 0 0 0-1.718-.55 2.569 2.569 0 0 0-1.844.777 2.58 2.58 0 0 0-.733 1.862 2.51 2.51 0 0 0 .711 1.882 2.5 2.5 0 0 0 1.866.749l.129.017Zm-8.994-.353a.283.283 0 0 0 .546.109.283.283 0 0 0 .021-.109V51.21l3.161 4.049a.396.396 0 0 0 .3.172.257.257 0 0 0 .267-.267v-4.573a.284.284 0 0 0-.275-.283.283.283 0 0 0-.283.283v3.851l-3.101-3.954a.377.377 0 0 0-.292-.163h-.086a.292.292 0 0 0-.284.283l.026 4.556Zm-2.8 0a.292.292 0 0 0 .283.293.292.292 0 0 0 .293-.293v-4.573a.292.292 0 0 0-.293-.292.292.292 0 0 0-.283.292v4.573Zm-3.694.327c1.014 0 1.718-.567 1.718-1.444 0-.774-.524-1.195-1.666-1.444-1.142-.25-1.383-.507-1.383-.989 0-.455.42-.86 1.082-.86.48-.005.946.152 1.323.448a.283.283 0 0 0 .447-.224.302.302 0 0 0-.129-.24 2.575 2.575 0 0 0-1.623-.5 1.5 1.5 0 0 0-1.514.81c-.093.182-.148.38-.162.583 0 .86.542 1.212 1.718 1.47 1.177.258 1.332.499 1.332.972 0 .498-.455.86-1.134.86a2.31 2.31 0 0 1-1.615-.611.258.258 0 0 0-.172-.06.283.283 0 0 0-.255.405c.02.038.048.07.084.093a2.953 2.953 0 0 0 1.932.688M142.165 36.27a.561.561 0 0 0 .558.558.56.56 0 0 0 .559-.558v-2.244a1.078 1.078 0 0 1 .647-1.125c.143-.06.297-.09.452-.087.662 0 1.039.438 1.039 1.195v2.26a.546.546 0 0 0 .167.396.553.553 0 0 0 .4.155.54.54 0 0 0 .55-.55v-2.58a1.666 1.666 0 0 0-1.718-1.865 1.715 1.715 0 0 0-1.52.86v-2.106a.562.562 0 0 0-.55-.619.548.548 0 0 0-.55.559l-.034 5.75Zm-3.024.619a2.376 2.376 0 0 0 1.778-.697.44.44 0 0 0 .155-.344.478.478 0 0 0-.295-.452.48.48 0 0 0-.186-.038.44.44 0 0 0-.301.12 1.647 1.647 0 0 1-1.091.43 1.473 1.473 0 0 1-1.374-.976 1.49 1.49 0 0 1-.086-.588 1.468 1.468 0 0 1 .847-1.411c.176-.082.367-.129.562-.136.388.001.762.149 1.048.412a.523.523 0 0 0 .859-.395.508.508 0 0 0-.181-.387 2.445 2.445 0 0 0-1.718-.61 2.509 2.509 0 0 0-2.576 2.579 2.476 2.476 0 0 0 .726 1.79 2.483 2.483 0 0 0 1.79.728l.043-.025Zm-5.944-.594a.558.558 0 0 0 1.117 0v-1.444c0-1.152.55-1.762 1.34-1.9a.55.55 0 0 0-.112-1.091 1.555 1.555 0 0 0-1.228 1.074v-.498a.56.56 0 0 0-.772-.517.557.557 0 0 0-.345.517v3.86Zm-3.702-.197c-.533 0-.953-.275-.953-.748 0-.507.429-.808 1.151-.808.377-.005.753.06 1.108.189v.335c0 .62-.567 1.049-1.306 1.049v-.017Zm-.309.825a1.99 1.99 0 0 0 1.589-.714v.19a.505.505 0 0 0 .173.346.495.495 0 0 0 .368.118.525.525 0 0 0 .541-.533V33.93a2.008 2.008 0 0 0-.524-1.504 2.178 2.178 0 0 0-1.615-.55 4.295 4.295 0 0 0-1.572.284.498.498 0 0 0-.3.447.478.478 0 0 0 .421.46.472.472 0 0 0 .223-.03 2.868 2.868 0 0 1 1.082-.19c.782 0 1.211.37 1.211 1.066v.12a4.086 4.086 0 0 0-1.314-.206c-1.194 0-2.01.516-2.01 1.573a1.547 1.547 0 0 0 .531 1.128 1.553 1.553 0 0 0 1.187.377l.009.017Zm-3.007-.653a.499.499 0 0 0 .155-.344.45.45 0 0 0-.447-.456.418.418 0 0 0-.283.103c-.323.278-.734.43-1.16.43a1.359 1.359 0 0 1-1.4-1.238h3.058a.529.529 0 0 0 .377-.16.517.517 0 0 0 .147-.381 2.303 2.303 0 0 0-2.319-2.399 2.412 2.412 0 0 0-2.38 2.536 2.432 2.432 0 0 0 2.5 2.527c.634.011 1.248-.22 1.718-.644l.034.026ZM123.001 34a1.307 1.307 0 0 1 1.263-1.29 1.258 1.258 0 0 1 .885.389 1.275 1.275 0 0 1 .352.901h-2.5Zm-3.711 2.837c1.014 0 1.813-.507 1.813-1.539 0-.86-.808-1.195-1.521-1.418-.567-.19-1.099-.335-1.099-.696 0-.276.249-.482.687-.482a2.58 2.58 0 0 1 1.143.335.47.47 0 0 0 .223.052.446.446 0 0 0 .464-.447.48.48 0 0 0-.267-.43 3.38 3.38 0 0 0-1.537-.395 1.551 1.551 0 0 0-1.566.873 1.557 1.557 0 0 0-.152.614c0 .937.807 1.23 1.52 1.435.576.172 1.091.301 1.091.68 0 .318-.275.524-.756.524a2.576 2.576 0 0 1-1.4-.473.523.523 0 0 0-.24-.069.454.454 0 0 0-.456.456.427.427 0 0 0 .215.387 3.333 3.333 0 0 0 1.856.584l-.018.009Zm-3.247-.636a.468.468 0 0 0 .124-.518.444.444 0 0 0-.243-.247.442.442 0 0 0-.456.069c-.323.277-.734.43-1.16.43a1.358 1.358 0 0 1-1.4-1.239h3.058a.527.527 0 0 0 .489-.335.517.517 0 0 0 .035-.206 2.303 2.303 0 0 0-2.319-2.398 2.412 2.412 0 0 0-2.38 2.535 2.43 2.43 0 0 0 .702 1.807 2.428 2.428 0 0 0 1.798.72c.634.012 1.248-.219 1.718-.644l.034.026Zm-3.178-2.27a1.32 1.32 0 0 1 1.263-1.29 1.261 1.261 0 0 1 1.237 1.29h-2.5Zm-6.159-.48v-2.176h1.684c.859 0 1.34.378 1.34 1.075 0 .653-.515 1.083-1.331 1.083l-1.693.017Zm-1.134 2.741a.566.566 0 0 0 .968.401.565.565 0 0 0 .166-.4v-1.72h1.426l1.572 2.003a.64.64 0 0 0 .558.292.534.534 0 0 0 .542-.524.689.689 0 0 0-.181-.43l-1.237-1.565a1.91 1.91 0 0 0 1.461-1.934 1.955 1.955 0 0 0-.533-1.392 2.576 2.576 0 0 0-1.864-.645h-2.293a.564.564 0 0 0-.527.349.545.545 0 0 0-.04.218l-.018 5.347Zm-6.82-3.49a1.468 1.468 0 0 1 1.418 1.556 1.474 1.474 0 0 1-1.418 1.565 1.449 1.449 0 0 1-1.328-.986 1.454 1.454 0 0 1-.072-.579 1.428 1.428 0 0 1 1.4-1.556Zm2.517-2.226a.56.56 0 0 0-.558-.559.558.558 0 0 0-.559.559v2.114a1.99 1.99 0 0 0-1.666-.86 2.32 2.32 0 0 0-2.26 2.528 2.34 2.34 0 0 0 2.26 2.536 1.948 1.948 0 0 0 1.666-.911v.3a.558.558 0 0 0 1.117 0v-5.707ZM90.747 36.2a.559.559 0 1 0 1.116 0v-2.244a1.092 1.092 0 0 1 1.1-1.212c.67 0 1.048.439 1.048 1.195v2.26a.559.559 0 1 0 1.116 0v-2.578a1.668 1.668 0 0 0-1.718-1.865 1.768 1.768 0 0 0-1.529.86v-.241a.558.558 0 1 0-1.116 0l-.017 3.825Zm-3.703-.198c-.532 0-.953-.275-.953-.748 0-.507.43-.808 1.15-.808.379-.004.754.06 1.109.19v.335c0 .618-.567 1.048-1.306 1.048v-.017Zm-.317.825a1.967 1.967 0 0 0 1.589-.713v.189a.508.508 0 0 0 .55.464.521.521 0 0 0 .54-.533v-2.398a2.014 2.014 0 0 0-.524-1.505 2.181 2.181 0 0 0-1.614-.55 4.29 4.29 0 0 0-1.572.284.498.498 0 0 0-.3.447.464.464 0 0 0 .463.464.48.48 0 0 0 .18 0 2.867 2.867 0 0 1 1.083-.189c.781 0 1.202.37 1.202 1.066v.12c-.42-.14-.862-.21-1.305-.206-1.194 0-2.019.516-2.019 1.573a1.558 1.558 0 0 0 1.718 1.505M174.53 26.521c.782 0 1.229-.37 1.641-1.366l1.778-4.299a.861.861 0 0 0 .052-.275.523.523 0 0 0-.533-.524.575.575 0 0 0-.541.43l-1.22 3.24-1.323-3.223a.556.556 0 0 0-.549-.43.538.538 0 0 0-.511.331.542.542 0 0 0-.039.21.865.865 0 0 0 .06.276l1.812 4.04v.103c-.189.379-.36.525-.695.525a1.347 1.347 0 0 1-.387-.07.599.599 0 0 0-.206 0 .434.434 0 0 0-.322.132.46.46 0 0 0-.096.15.454.454 0 0 0-.029.174.467.467 0 0 0 .344.464c.248.1.514.146.782.138l-.018-.026Zm-4.801-2.82a1.327 1.327 0 0 1-.984-.37 1.333 1.333 0 0 1-.408-.97 1.33 1.33 0 0 1 .86-1.26c.17-.063.351-.09.532-.081a1.363 1.363 0 0 1 1.309.811c.074.167.113.347.117.53a1.35 1.35 0 0 1-.428.974 1.354 1.354 0 0 1-.998.367Zm-.095 2.838a2.758 2.758 0 0 0 2.002-.654 2.503 2.503 0 0 0 .618-1.84v-3.369a.56.56 0 0 0-.772-.516.557.557 0 0 0-.345.516v.224a2.115 2.115 0 0 0-1.718-.86 2.19 2.19 0 0 0-2.216 2.287 2.19 2.19 0 0 0 2.216 2.286 2.036 2.036 0 0 0 1.718-.86v.379a1.356 1.356 0 0 1-1.537 1.495 3.003 3.003 0 0 1-1.503-.386.354.354 0 0 0-.198-.052.471.471 0 0 0-.163.911 4.291 4.291 0 0 0 1.89.43l.008.009Zm-5.91-2.373a1.503 1.503 0 0 1-1.486-1.564 1.458 1.458 0 0 1 .886-1.434 1.502 1.502 0 0 1 2.078 1.45 1.48 1.48 0 0 1-.408 1.088 1.474 1.474 0 0 1-1.07.451v.01Zm0 .971a2.578 2.578 0 1 0-2.577-2.578 2.516 2.516 0 0 0 2.577 2.519v.06Zm-4.896-.679a.558.558 0 0 0 1.117 0v-5.673a.558.558 0 0 0-.567-.55.55.55 0 0 0-.55.55v5.673Zm-3.796-.36a1.504 1.504 0 0 1-1.486-1.565 1.452 1.452 0 0 1 .399-1.093 1.45 1.45 0 0 1 1.069-.455 1.5 1.5 0 0 1 1.389.989c.069.19.099.391.089.593a1.48 1.48 0 0 1-.408 1.087 1.474 1.474 0 0 1-1.07.452l.018-.009Zm-.018.988a2.578 2.578 0 1 0-1.822-4.402 2.58 2.58 0 0 0-.754 1.823 2.515 2.515 0 0 0 2.576 2.519v.06Zm-8.04-.68a.558.558 0 0 0 1.117 0v-2.183a1.078 1.078 0 0 1 .273-.857 1.086 1.086 0 0 1 .827-.355c.661 0 1.039.43 1.039 1.195v2.261a.555.555 0 0 0 .567.55.545.545 0 0 0 .51-.338.55.55 0 0 0 .04-.212v-2.579a1.66 1.66 0 0 0-1.015-1.739 1.667 1.667 0 0 0-.703-.126 1.762 1.762 0 0 0-1.521.86v-.233a.554.554 0 0 0-.567-.567.55.55 0 0 0-.549.567l-.018 3.757Zm-5.729 0a.558.558 0 0 0 1.117 0v-2.183a1.078 1.078 0 0 1 .647-1.124c.143-.061.297-.091.452-.088.67 0 1.048.43 1.048 1.195v2.261a.558.558 0 0 0 1.117 0v-2.579a1.712 1.712 0 0 0-.449-1.311 1.716 1.716 0 0 0-1.269-.554 1.777 1.777 0 0 0-1.529.86v-2.098a.558.558 0 0 0-1.117 0l-.017 5.622Zm-3.024.62a2.375 2.375 0 0 0 1.778-.697.406.406 0 0 0 .155-.343.477.477 0 0 0-.266-.447.473.473 0 0 0-.516.068 1.612 1.612 0 0 1-1.09.439 1.478 1.478 0 0 1-1.461-1.565 1.467 1.467 0 0 1 .381-1.068 1.475 1.475 0 0 1 1.028-.48c.389 0 .763.148 1.048.413.098.07.215.108.335.112a.513.513 0 0 0 .364-.145.506.506 0 0 0 .103-.578.537.537 0 0 0-.132-.18 2.482 2.482 0 0 0-1.718-.601 2.517 2.517 0 0 0-2.577 2.579 2.49 2.49 0 0 0 .73 1.788 2.484 2.484 0 0 0 1.787.73l.051-.025Zm-3.891-.62a.489.489 0 0 0 .118-.516.437.437 0 0 0-.41-.283.42.42 0 0 0-.283.104c-.323.277-.734.43-1.16.43a1.356 1.356 0 0 1-1.4-1.246h3.058a.517.517 0 0 0 .524-.534 2.303 2.303 0 0 0-2.319-2.399 2.412 2.412 0 0 0-2.235 1.583c-.112.305-.161.63-.145.953a2.442 2.442 0 0 0 .698 1.813 2.437 2.437 0 0 0 1.802.723c.634.011 1.248-.22 1.718-.644l.034.017Zm-3.135-2.183a1.307 1.307 0 0 1 1.263-1.29 1.261 1.261 0 0 1 1.237 1.29h-2.5Zm-4.054 2.261a.572.572 0 0 0 .571.506.575.575 0 0 0 .571-.506v-4.9h1.581a.526.526 0 0 0 .199-1.008.516.516 0 0 0-.199-.04h-4.295a.525.525 0 1 0 0 1.048h1.572v4.9Zm-6.477 1.6a.253.253 0 0 0 .183.25c.035.009.072.012.109.007.323-.028.627-.168.859-.396a1.85 1.85 0 0 0 .447-1.35v-.102c0-.499-.249-.817-.662-.817a.6.6 0 0 0-.627.62v.076a.673.673 0 0 0 .524.628.812.812 0 0 1-.627.86.257.257 0 0 0-.215.249l.009-.026Zm-1.108-1.617a.498.498 0 0 0 .154-.344.457.457 0 0 0-.273-.42.45.45 0 0 0-.457.068c-.322.277-.734.43-1.159.43a1.358 1.358 0 0 1-1.4-1.247h3.135a.515.515 0 0 0 .524-.533 2.303 2.303 0 0 0-2.319-2.398 2.41 2.41 0 0 0-2.235 1.582c-.112.305-.161.63-.145.954a2.442 2.442 0 0 0 .698 1.812 2.435 2.435 0 0 0 1.802.724c.633.01 1.247-.22 1.718-.645l-.043.017Zm-3.11-2.244a1.322 1.322 0 0 1 1.263-1.29 1.261 1.261 0 0 1 1.237 1.29h-2.5Zm-3.719 2.889a2.374 2.374 0 0 0 1.769-.697.406.406 0 0 0 .155-.343.478.478 0 0 0-.295-.453.48.48 0 0 0-.186-.038.483.483 0 0 0-.301.112c-.294.28-.684.437-1.09.439a1.475 1.475 0 0 1-1.461-1.565 1.477 1.477 0 0 1 .384-1.071 1.475 1.475 0 0 1 1.034-.476c.385.002.757.15 1.039.413a.617.617 0 0 0 .335.111.51.51 0 0 0 .476-.31.507.507 0 0 0 .039-.197.567.567 0 0 0-.171-.395 2.578 2.578 0 0 0-3.839.558 2.577 2.577 0 0 0-.228 2.354 2.5 2.5 0 0 0 1.37 1.367c.308.125.638.187.97.182v.009Zm-7.98-.628a.558.558 0 0 0 1.117 0v-2.26a1.078 1.078 0 0 1 .648-1.125c.142-.061.296-.091.451-.088.662 0 1.04.43 1.04 1.195v2.261a.545.545 0 0 0 .351.513c.069.027.142.04.216.037a.536.536 0 0 0 .391-.158.542.542 0 0 0 .158-.392v-2.579a1.67 1.67 0 0 0-1.014-1.739 1.67 1.67 0 0 0-.704-.126 1.761 1.761 0 0 0-1.52.86v-.233a.564.564 0 0 0-.349-.526.554.554 0 0 0-.218-.041.542.542 0 0 0-.395.167.562.562 0 0 0-.155.4l-.017 3.834Zm-1.589 0a.526.526 0 0 0 .146-.344.444.444 0 0 0-.122-.32.442.442 0 0 0-.316-.135.446.446 0 0 0-.292.103 1.72 1.72 0 0 1-1.151.43 1.365 1.365 0 0 1-1.409-1.247h3.058a.515.515 0 0 0 .524-.533 2.31 2.31 0 0 0-.643-1.693 2.3 2.3 0 0 0-1.668-.705 2.41 2.41 0 0 0-2.242 1.58c-.112.306-.162.63-.146.956a2.434 2.434 0 0 0 2.509 2.536 2.518 2.518 0 0 0 1.718-.645l.034.017Zm-3.152-2.26a1.322 1.322 0 0 1 1.271-1.29 1.273 1.273 0 0 1 1.237 1.29h-2.508Zm-3.436 2.269a.559.559 0 1 0 1.116 0v-3.86a.56.56 0 0 0-1.08-.216.55.55 0 0 0-.036.216v3.86Zm-.086-5.63a.645.645 0 0 0 1.271 0v-.078a.645.645 0 0 0-1.271 0v.077Zm-3.007 6.249a2.378 2.378 0 0 0 1.778-.697.413.413 0 0 0 .155-.343.473.473 0 0 0-.782-.379 1.614 1.614 0 0 1-1.09.439 1.478 1.478 0 0 1-1.46-1.565 1.47 1.47 0 0 1 1.408-1.547c.389 0 .763.147 1.048.413.098.07.214.109.335.111a.505.505 0 0 0 .515-.507.54.54 0 0 0-.18-.395 2.482 2.482 0 0 0-1.718-.602 2.514 2.514 0 0 0-2.398 1.582 2.52 2.52 0 0 0-.179.997 2.494 2.494 0 0 0 2.517 2.518l.051-.025Zm-5.815.026c1.357 0 2.302-.723 2.302-1.935 0-1.074-.696-1.564-2.061-1.89-1.366-.328-1.547-.525-1.547-1.024 0-.421.387-.765 1.057-.765.533.01 1.05.181 1.486.49a.533.533 0 0 0 .825-.447.499.499 0 0 0-.25-.447 3.546 3.546 0 0 0-2.044-.602 1.975 1.975 0 0 0-2.207 1.874c0 1.195.773 1.6 2.147 1.934 1.203.276 1.46.525 1.46.99 0 .48-.446.816-1.142.816a2.773 2.773 0 0 1-1.813-.67.549.549 0 0 0-.335-.104.532.532 0 0 0-.309.963c.7.53 1.554.816 2.431.816ZM132.731 12.716a.557.557 0 1 0 1.116 0v-1.444c0-1.152.55-1.763 1.34-1.9a.532.532 0 0 0 .447-.533.53.53 0 0 0-.152-.407.527.527 0 0 0-.406-.152 1.553 1.553 0 0 0-1.229 1.075v-.499a.56.56 0 0 0-.558-.559.562.562 0 0 0-.516.345.56.56 0 0 0-.042.214v3.86Zm-3.728-.361a1.504 1.504 0 0 1-1.486-1.565 1.452 1.452 0 0 1 .399-1.092 1.45 1.45 0 0 1 1.069-.455 1.5 1.5 0 0 1 1.495 1.564 1.48 1.48 0 0 1-.408 1.088 1.463 1.463 0 0 1-1.069.451v.009Zm0 .971a2.576 2.576 0 0 0 2.577-2.579 2.581 2.581 0 0 0-2.577-2.579 2.578 2.578 0 0 0-2.577 2.58 2.526 2.526 0 0 0 .758 1.802 2.519 2.519 0 0 0 1.819.716v.06Zm-5.446-.68a.559.559 0 0 0 1.108 0V9.209h.859a.466.466 0 0 0 .527-.46.472.472 0 0 0-.159-.35.468.468 0 0 0-.368-.11h-.859v-.266c0-.516.223-.74.653-.74h.223a.45.45 0 0 0 .336-.13.45.45 0 0 0 .136-.334.461.461 0 0 0-.386-.464 3.444 3.444 0 0 0-.559-.043 1.476 1.476 0 0 0-1.099.387 1.652 1.652 0 0 0-.395 1.204v.36h-.198a.473.473 0 0 0-.472.474.468.468 0 0 0 .142.325.46.46 0 0 0 .33.13h.198l-.017 3.456Zm-7.559 2.012c.79 0 1.228-.37 1.64-1.366l1.787-4.299a1.15 1.15 0 0 0 0-.275.523.523 0 0 0-.533-.524.566.566 0 0 0-.532.43l-1.22 3.24-1.314-3.24a.566.566 0 0 0-.541-.43.547.547 0 0 0-.397.155.533.533 0 0 0-.162.395.686.686 0 0 0 .069.267l1.804 4.049v.094c-.18.387-.361.524-.696.524a1.34 1.34 0 0 1-.386-.068.588.588 0 0 0-.198 0 .442.442 0 0 0-.324.13.449.449 0 0 0-.131.325.47.47 0 0 0 .352.465c.246.098.509.144.773.137l.009-.008Zm-3.891-1.383a2.364 2.364 0 0 0 1.769-.697.416.416 0 0 0 .155-.344.479.479 0 0 0-.138-.346.482.482 0 0 0-.343-.144.438.438 0 0 0-.301.12 1.65 1.65 0 0 1-1.091.43 1.478 1.478 0 0 1-1.46-1.564 1.459 1.459 0 0 1 .384-1.072 1.464 1.464 0 0 1 1.033-.475c.386.002.757.149 1.039.412a.62.62 0 0 0 .335.112.504.504 0 0 0 .516-.507.508.508 0 0 0-.181-.387 2.437 2.437 0 0 0-1.717-.61 2.514 2.514 0 0 0-2.398 1.582 2.5 2.5 0 0 0-.179.996 2.48 2.48 0 0 0 .732 1.792 2.487 2.487 0 0 0 1.793.727l.052-.026Zm-8.032-.594a.558.558 0 0 0 1.117 0v-2.243a1.078 1.078 0 0 1 .648-1.125c.142-.061.296-.091.451-.087.662 0 1.04.43 1.04 1.194v2.261a.545.545 0 0 0 .351.514c.069.026.142.039.216.037a.54.54 0 0 0 .549-.55v-2.58a1.67 1.67 0 0 0-1.718-1.865 1.714 1.714 0 0 0-1.52.86v-.241a.564.564 0 0 0-.349-.527.555.555 0 0 0-.218-.04.543.543 0 0 0-.395.167.561.561 0 0 0-.155.4l-.017 3.825Zm-1.589 0a.526.526 0 0 0 .146-.343.449.449 0 0 0-.447-.456.437.437 0 0 0-.283.103c-.318.28-.728.433-1.151.43a1.364 1.364 0 0 1-1.409-1.247h3.058a.515.515 0 0 0 .524-.533 2.31 2.31 0 0 0-.643-1.693 2.3 2.3 0 0 0-1.668-.705 2.41 2.41 0 0 0-2.242 1.58c-.112.306-.162.63-.146.956a2.434 2.434 0 0 0 2.509 2.579 2.518 2.518 0 0 0 1.718-.645l.034-.026Zm-3.187-2.217a1.325 1.325 0 0 1 1.263-1.29 1.269 1.269 0 0 1 1.245 1.29h-2.508Zm-4.656 1.444a1.323 1.323 0 0 1-1.382-1.341 1.325 1.325 0 0 1 1.383-1.341 1.365 1.365 0 0 1 1.434 1.34 1.358 1.358 0 0 1-1.434 1.342Zm-.085 2.836a2.73 2.73 0 0 0 2.001-.653 2.5 2.5 0 0 0 .618-1.84v-3.37a.559.559 0 1 0-1.116 0v.224a2.113 2.113 0 0 0-1.718-.86 2.198 2.198 0 0 0-2.276 2.287 2.194 2.194 0 0 0 2.216 2.287 2.036 2.036 0 0 0 1.718-.86v.379a1.368 1.368 0 0 1-1.546 1.495 2.996 2.996 0 0 1-1.495-.387.447.447 0 0 0-.198-.051.472.472 0 0 0-.39.738c.056.08.135.14.227.173a4.292 4.292 0 0 0 1.89.43l.069.008Zm-7.525-4.074 1.134-2.58 1.142 2.58h-2.276Zm-2.001 2.097a.508.508 0 0 0 .523.525.549.549 0 0 0 .524-.353l.55-1.255h3.135l.525 1.212a.593.593 0 0 0 .558.396.53.53 0 0 0 .532-.542.524.524 0 0 0-.06-.24l-2.405-5.356a.705.705 0 0 0-.67-.464h-.06a.713.713 0 0 0-.679.464L85.1 12.509a.644.644 0 0 0-.068.258ZM135.231 43.404H85.023v.293h50.208v-.293Z"/><path fill="#DA291C" d="m60.389 10.945 17.18-4.298c.55-.138.858.67.438 1.066l-16.003 14.14c-.447.388-1.048-.171-.808-.739l3.222-7.461a.601.601 0 0 0-.387-.86l-3.642-.679a.618.618 0 0 1 0-1.178M71.944 6.5 71.317.484a.533.533 0 0 0-.455-.472.49.49 0 0 0-.55.283l-3.23 7.453 1.83-.455 1.331-3.07.275 2.674 1.426-.395ZM72.793 14.4l.747 7.213a.611.611 0 0 1-.31.619.497.497 0 0 1-.6-.146l-3.548-4.41 1.16-1.023 1.503 1.908-.31-2.966 1.358-1.195Z"/><path fill="#003087" d="M66.067 30.398a.919.919 0 0 0-1.091.3l-.318.362A111.506 111.506 0 0 1 52.94 43.18a50.81 50.81 0 0 1-7.55 5.468c-2.31 1.453-3.333.765-3.694.43a3.302 3.302 0 0 1-.859-2.106c-.089-2.249.146-4.498.696-6.68a59.642 59.642 0 0 1 4.2-10.685 43.841 43.841 0 0 1 6.477-8.777 4.488 4.488 0 0 0-.652-6.438 4.293 4.293 0 0 0-6.237.481l-.799.954a9.612 9.612 0 0 0-1.254-.911 10.98 10.98 0 0 0-6.614-1.513 29.89 29.89 0 0 0-7.112 1.393c-2.448.79-5.592 2.493-9.604 5.21A74.093 74.093 0 0 0 8.67 29.46 34.385 34.385 0 0 0 .94 40.636a11.88 11.88 0 0 0-.91 5.45c.139 1.99.93 3.878 2.25 5.373a12.68 12.68 0 0 0 4.664 3.49 10.928 10.928 0 0 0 5.025 1.014c3.23-.215 6.726-2.037 10.385-5.407a76.478 76.478 0 0 0 9.174-10.006l.747-.98a31.958 31.958 0 0 0-.36 7.058c.065 1.252.287 2.49.661 3.688v.103c1.52 3.619 4.192 5.81 7.928 5.562 3.737-.25 7.56-2.476 11.502-5.837 2.079-1.72 4.94-4.797 8.727-9.405 3.514-4.298 5.154-7.418 5.54-9.086 0 0 0-.137.06-.258.061-.12 0-.275 0-.284a.792.792 0 0 0-.343-.73l.078.017ZM16.693 46.86c-4.167 3.774-6.168 4.435-6.984 4.487-.816.052-1.555-1.023-1.572-3.275-.017-2.252.86-4.41 2.809-7.857a51.793 51.793 0 0 1 6.769-8.872 54.603 54.603 0 0 1 10.574-8.26c3.65-2.201 6.983-3.439 9.904-3.61a11.072 11.072 0 0 1 3.032.162h.077L30.307 32.65l-3.882 4.427c-2.173 2.416-5.403 5.7-9.655 9.8"/></svg>