<svg xmlns="http://www.w3.org/2000/svg" width="26" height="26" fill="none" class="css-doh2cr"><path fill="#003087" d="M12.178 3.113H4.673a1.083 1.083 0 1 0 0 2.167h7.505a1.083 1.083 0 1 0 0-2.167Z"/><path fill="#003087" d="M5.753 4.371c0-.67-.485-1.215-1.084-1.215-.598 0-1.083.544-1.083 1.215v17.075c0 .671.485 1.215 1.083 1.215.599 0 1.084-.544 1.084-1.215V4.371Z"/><path fill="#003087" d="M21.834 20.488H4.67a1.083 1.083 0 0 0 0 2.166h17.165a1.083 1.083 0 1 0 0-2.166Z"/><path fill="#003087" d="M23.03 13.983a1.083 1.083 0 1 0-2.167 0v7.599a1.083 1.083 0 1 0 2.167 0v-7.599ZM22.052 3.16h-.07c-.579 0-1.048.469-1.048 1.048v5.398c0 .58.47 1.049 1.048 1.049h.07c.579 0 1.048-.47 1.048-1.05V4.209c0-.579-.47-1.049-1.049-1.049Z"/><path fill="#003087" d="M21.963 3.12H16.58a1.083 1.083 0 0 0 0 2.167h5.384a1.083 1.083 0 0 0 0-2.167Z"/><path fill="#003087" d="M20.081 4.512 8.438 16.155a1.083 1.083 0 0 0 1.532 1.532L21.614 6.044a1.083 1.083 0 0 0-1.533-1.532Z"/></svg>