<svg xmlns="http://www.w3.org/2000/svg" fill="none" class="css-doh2cr" viewBox="0 0 22 20"><path fill="#003087" d="M11 4.365V0H0v20h22V4.365H11zm-6.66 13.3H2.12v-2.132h2.22v2.132zm0-4.365H2.12v-2.234h2.22v2.233zm0-4.366H2.12V6.701h2.22v2.233zm0-4.569H2.12V2.233h2.22v2.132zm4.44 13.3H6.66v-2.132h2.12v2.132zm0-4.365H6.66v-2.234h2.12v2.233zm0-4.366H6.66V6.701h2.12v2.233zm0-4.569H6.66V2.233h2.12v2.132zm11.1 13.3H11v-2.132h2.22V13.3H11v-2.234h2.22V8.934H11V6.701h8.88v10.964zm-2.32-2.132h-2.22V13.3h2.22v2.233zm0-4.467h-2.22V8.934h2.22v2.132z"/></svg>